<svg width="1600" height="900" viewBox="0 0 1600 900" fill="none" xmlns="http://www.w3.org/2000/svg">
  <rect width="1600" height="900" fill="#ECFDF5"/>
  <rect x="60" y="60" width="1480" height="780" rx="36" fill="url(#bg)"/>
  <circle cx="1290" cy="220" r="140" fill="#A7F3D0" fill-opacity="0.55"/>
  <circle cx="310" cy="700" r="160" fill="#BFDBFE" fill-opacity="0.5"/>
  <rect x="140" y="170" width="620" height="460" rx="28" fill="white" fill-opacity="0.92"/>
  <rect x="840" y="240" width="610" height="360" rx="28" fill="white" fill-opacity="0.9"/>
  <rect x="210" y="250" width="160" height="250" rx="24" fill="#0F766E"/>
  <circle cx="290" cy="215" r="54" fill="#FDE68A"/>
  <rect x="430" y="255" width="250" height="32" rx="16" fill="#99F6E4"/>
  <rect x="430" y="312" width="220" height="24" rx="12" fill="#CBD5E1"/>
  <rect x="430" y="356" width="190" height="24" rx="12" fill="#CBD5E1"/>
  <rect x="430" y="400" width="210" height="24" rx="12" fill="#CBD5E1"/>
  <rect x="430" y="452" width="170" height="52" rx="18" fill="#14B8A6"/>
  <path d="M1010 365C1048 320 1110 298 1180 298C1266 298 1336 332 1370 392" stroke="#0F766E" stroke-width="20" stroke-linecap="round"/>
  <circle cx="1035" cy="420" r="56" fill="#2563EB"/>
  <circle cx="1350" cy="420" r="56" fill="#EA580C"/>
  <rect x="1088" y="470" width="210" height="28" rx="14" fill="#D1FAE5"/>
  <rect x="1050" y="532" width="290" height="22" rx="11" fill="#CBD5E1"/>
  <rect x="930" y="678" width="400" height="78" rx="20" fill="#FEF3C7"/>
  <rect x="960" y="704" width="160" height="18" rx="9" fill="#F59E0B"/>
  <rect x="1140" y="704" width="150" height="18" rx="9" fill="#F59E0B"/>
  <defs>
    <linearGradient id="bg" x1="100" y1="90" x2="1470" y2="820" gradientUnits="userSpaceOnUse">
      <stop stop-color="#D1FAE5"/>
      <stop offset="1" stop-color="#DBEAFE"/>
    </linearGradient>
  </defs>
</svg>
